# xmcd
#
# Track frame offsets:
#	150
#	18348
#	33096
#	48369
#	65442
#	79890
#	99963
#	117486
#	140109
#	161457
#	178455
#	194253
#	211551
#
# Disc length: 3035 seconds
#
# Revision: 1
# Processed by: cddbd v1.5.2PL0 Copyright (c) Steve Scherf et al.
# Submitted via: audiograbber 1.83.01
#
DISCID=ad0bd90d
DTITLE=Aimee Mann - Lost in Space
DYEAR=1900
DGENRE=
TTITLE0=Humpty Dumpty
TTITLE1=High on Sunday 51
TTITLE2=Lost in Space
TTITLE3=This Is How It Goes
TTITLE4=Guys Like Me
TTITLE5=Pavlov's Bell
TTITLE6=Real Bad News
TTITLE7=Invisible Ink
TTITLE8=Today's the Day
TTITLE9=The Moth
TTITLE10=It's Not
TTITLE11=Nightmare Girl (Bonus Track)
TTITLE12=Lucy in the Sky with Diamonds (Bonus Track)
EXTD=
EXTT0=
EXTT1=
EXTT2=
EXTT3=
EXTT4=
EXTT5=
EXTT6=
EXTT7=
EXTT8=
EXTT9=
EXTT10=
EXTT11=
EXTT12=
PLAYORDER=
